M48
; DRILL file {KiCad 7.0.7} date 2023 September 18, Monday 17:08:58
; FORMAT={-:-/ absolute / metric / decimal}
; #@! TF.CreationDate,2023-09-18T17:08:58+02:00
; #@! TF.GenerationSoftware,Kicad,Pcbnew,7.0.7
; #@! TF.FileFunction,Plated,1,2,PTH
FMAT,2
METRIC
; #@! TA.AperFunction,Plated,PTH,ViaDrill
T1C0.400
; #@! TA.AperFunction,Plated,PTH,ComponentDrill
T2C0.762
; #@! TA.AperFunction,Plated,PTH,ComponentDrill
T3C0.800
; #@! TA.AperFunction,Plated,PTH,ComponentDrill
T4C0.950
; #@! TA.AperFunction,Plated,PTH,ComponentDrill
T5C1.000
; #@! TA.AperFunction,Plated,PTH,ComponentDrill
T6C1.700
; #@! TA.AperFunction,Plated,PTH,ComponentDrill
T7C2.600
; #@! TA.AperFunction,Plated,PTH,ComponentDrill
T8C3.200
%
G90
G05
T1
X140.157Y-78.08
X140.157Y-86.055
X140.208Y-53.848
X140.208Y-61.722
X140.208Y-67.158
X140.208Y-72.441
X140.462Y-89.154
X140.462Y-95.504
X140.462Y-99.568
X140.462Y-103.632
X140.462Y-106.934
X140.462Y-110.49
X140.462Y-114.046
X140.462Y-117.348
X141.478Y-72.441
X141.63Y-81.331
X141.732Y-47.498
X141.732Y-53.848
X141.732Y-61.722
X141.732Y-65.38
X141.986Y-98.552
X141.986Y-101.092
X141.986Y-105.41
X141.986Y-108.712
X141.986Y-112.522
X141.986Y-115.57
X142.494Y-118.618
X142.748Y-59.436
X144.526Y-116.078
X145.034Y-59.944
X145.542Y-66.04
X146.05Y-98.552
X146.812Y-39.878
X147.32Y-118.618
X147.828Y-103.124
X147.828Y-108.966
X147.828Y-110.744
X147.828Y-116.078
X148.844Y-57.404
X148.844Y-59.69
X149.606Y-65.024
X149.606Y-87.122
X149.606Y-89.154
X149.606Y-98.552
X149.86Y-39.878
X149.86Y-41.148
X149.86Y-108.458
X150.114Y-74.422
X150.114Y-78.74
X150.114Y-83.312
X150.844Y-63.137
X150.876Y-92.71
X150.876Y-95.504
X150.913Y-99.461
X150.913Y-101.795
X150.913Y-103.573
X151.171Y-105.162
X151.384Y-48.768
X151.384Y-50.546
X151.384Y-118.618
X151.638Y-114.554
X151.964Y-106.184
X152.395Y-90.683
X152.4Y-107.696
X153.162Y-74.422
X153.162Y-78.74
X153.162Y-83.312
X153.416Y-39.878
X153.416Y-41.148
X153.416Y-53.594
X153.416Y-55.372
X153.416Y-90.687
X153.416Y-92.614
X153.416Y-95.504
X153.67Y-101.854
X153.67Y-103.378
X153.67Y-106.426
X153.924Y-108.458
X154.178Y-98.552
X155.448Y-108.712
X156.21Y-89.916
X156.21Y-93.218
X156.21Y-116.078
X156.21Y-117.602
X156.21Y-118.618
X156.464Y-47.752
X156.718Y-56.388
X156.718Y-75.184
X156.718Y-114.554
X156.723Y-106.421
X156.972Y-69.596
X156.972Y-110.236
X157.226Y-80.01
X157.48Y-39.878
X157.988Y-53.594
X158.242Y-51.054
X158.496Y-98.552
X158.75Y-92.71
X158.901Y-93.699
X159.004Y-99.568
X159.004Y-102.362
X159.258Y-114.554
X159.258Y-116.078
X159.766Y-97.028
X159.766Y-106.172
X159.918Y-51.054
X159.918Y-53.543
X160.274Y-54.864
X160.274Y-65.532
X160.528Y-59.944
X160.528Y-61.976
X161.544Y-39.878
X161.544Y-118.618
X161.957Y-68.257
X162.237Y-77.539
X162.306Y-49.784
X162.306Y-110.236
X162.56Y-80.518
X162.56Y-103.632
X162.814Y-90.353
X162.814Y-97.028
X163.015Y-93.013
X163.068Y-82.296
X163.322Y-106.172
X163.576Y-76.708
X163.83Y-67.31
X163.83Y-102.87
X163.83Y-69.731
X164.338Y-98.552
X164.338Y-99.568
X164.338Y-114.554
X164.338Y-116.078
X164.375Y-63.442
X164.381Y-57.231
X164.592Y-54.864
X164.846Y-59.944
X164.846Y-78.75
X165.862Y-39.878
X165.862Y-80.264
X165.862Y-83.058
X166.116Y-66.548
X166.116Y-70.612
X166.116Y-75.184
X166.167Y-51.257
X166.218Y-53.543
X166.37Y-106.172
X166.624Y-63.246
X167.64Y-52.846
X167.894Y-58.674
X167.894Y-84.836
X167.894Y-118.618
X167.899Y-50.805
X168.148Y-49.276
X168.402Y-66.548
X168.402Y-70.612
X168.402Y-75.184
X168.402Y-80.264
X168.402Y-108.966
X168.402Y-110.998
X168.656Y-116.078
X168.91Y-53.848
X169.164Y-98.552
X169.672Y-46.99
X169.672Y-86.614
X169.926Y-39.878
X169.926Y-41.148
X169.926Y-90.275
X169.994Y-92.964
X170.18Y-96.774
X170.434Y-59.944
X170.434Y-101.092
X170.434Y-107.188
X170.434Y-111.506
X170.688Y-66.548
X170.688Y-70.612
X170.688Y-80.264
X170.688Y-83.058
X171.45Y-57.404
X171.45Y-72.644
X172.974Y-96.774
X173.228Y-101.092
X173.228Y-105.156
X173.228Y-111.506
X173.482Y-118.618
X174.244Y-45.974
X174.244Y-77.47
X174.498Y-87.376
X174.498Y-89.154
X174.752Y-39.878
X174.752Y-42.164
X175.006Y-52.578
X175.006Y-57.404
X175.006Y-65.024
X175.006Y-74.422
X175.27Y-90.353
X175.37Y-93.045
X175.717Y-100.584
X175.717Y-105.766
X175.768Y-43.942
X175.768Y-45.974
X175.768Y-51.054
X175.768Y-113.538
X176.022Y-95.25
X176.53Y-63.246
X176.53Y-73.152
X176.53Y-80.264
X176.53Y-82.804
X176.784Y-56.388
X176.784Y-68.326
X177.068Y-91.41
X177.476Y-100.123
X177.546Y-92.441
X177.546Y-111.76
X177.8Y-58.928
X177.8Y-60.706
X178.054Y-47.752
X178.308Y-65.278
X178.308Y-95.25
X178.308Y-98.298
X178.308Y-99.568
X178.376Y-73.982
X178.562Y-70.104
X178.947Y-74.984
X179.324Y-104.648
X179.578Y-39.878
X179.68Y-96.825
X180.631Y-108.311
X181.305Y-91.542
X181.356Y-93.472
X181.364Y-109.408
X181.864Y-83.058
X182.118Y-107.696
X182.372Y-45.974
X182.372Y-110.236
X182.626Y-47.244
X182.626Y-114.046
X182.88Y-87.122
X182.88Y-89.154
X182.88Y-111.694
X183.388Y-58.928
X183.388Y-60.706
X183.642Y-39.878
X183.896Y-70.866
X184.404Y-117.348
X184.912Y-46.99
X184.912Y-57.15
X185.166Y-100.076
X185.217Y-96.825
X185.42Y-67.818
X185.688Y-70.856
X185.776Y-103.835
X186.182Y-68.834
X186.69Y-93.98
X186.69Y-104.445
X186.69Y-109.408
X187.198Y-47.244
X187.198Y-99.06
X187.3Y-117.348
X187.452Y-82.042
X187.452Y-108.646
X187.499Y-111.707
X188.214Y-70.866
X188.214Y-73.152
X188.214Y-113.538
X188.62Y-103.581
X188.722Y-39.878
X188.722Y-61.722
X188.976Y-83.82
X188.976Y-111.709
X189.23Y-42.164
X189.23Y-45.974
X189.23Y-52.324
X189.23Y-55.626
X189.23Y-71.12
X189.484Y-48.768
X190.348Y-114.503
X190.398Y-112.522
X190.5Y-101.346
X190.5Y-104.597
X190.551Y-110.439
X190.754Y-42.164
X190.754Y-45.974
X190.754Y-48.768
X190.754Y-52.324
X190.754Y-55.626
X190.754Y-58.166
X191.008Y-62.23
X191.171Y-97.478
X191.77Y-93.472
X192.075Y-117.297
X192.278Y-103.53
X192.532Y-112.202
X192.786Y-71.12
X192.786Y-73.406
X192.786Y-75.946
X192.786Y-83.566
X192.786Y-85.09
X193.245Y-109.481
X193.751Y-104.75
X193.817Y-110.437
X194.056Y-103.378
X194.31Y-58.928
X194.31Y-60.706
X194.31Y-62.23
X194.31Y-69.088
X194.462Y-94.894
X194.564Y-98.247
X194.716Y-108.302
X194.823Y-107.071
X195.326Y-103.378
X195.834Y-93.472
X195.877Y-107.063
X196.088Y-83.566
X196.088Y-85.09
X196.107Y-106.046
X196.545Y-73.406
X196.596Y-117.348
X196.602Y-107.849
X196.901Y-115.062
X197.304Y-108.632
X197.714Y-112.725
X197.896Y-107.1
X198.267Y-108.364
X198.607Y-111.895
X198.628Y-52.578
X198.69Y-106.492
X198.882Y-40.386
X198.882Y-56.134
X198.882Y-58.42
X198.882Y-60.706
X198.882Y-62.23
X198.882Y-83.566
X198.882Y-85.09
X199.136Y-47.752
X199.39Y-44.958
X199.39Y-103.124
X199.644Y-50.292
X199.898Y-70.104
X200.05Y-106.832
X200.406Y-59.944
X200.606Y-64.771
X200.66Y-93.218
X200.762Y-100.838
X200.914Y-42.418
X200.914Y-44.958
X200.914Y-47.752
X200.914Y-52.578
X200.914Y-56.134
X200.914Y-58.42
X201.14Y-66.276
X201.168Y-72.136
X201.422Y-40.386
X201.93Y-96.774
X201.93Y-104.902
X201.93Y-107.188
X201.93Y-110.744
X201.981Y-115.926
X202.438Y-63.094
X202.438Y-74.422
X202.844Y-92.507
X203.2Y-53.594
X203.2Y-84.582
X203.454Y-86.106
X203.708Y-100.838
X203.962Y-73.406
X204.114Y-64.11
X204.165Y-98.908
X204.216Y-44.958
X204.47Y-40.386
X204.47Y-79.502
X204.724Y-52.07
X204.724Y-83.566
X204.729Y-67.823
X204.978Y-87.63
X204.978Y-88.9
X206.248Y-67.818
X206.502Y-42.672
X206.502Y-52.07
X206.57Y-71.451
X206.604Y-65.888
X206.756Y-96.012
X206.947Y-83.862
X207.518Y-90.17
X207.772Y-40.386
X208.026Y-84.328
X208.534Y-74.422
X208.788Y-42.926
X208.788Y-44.958
X208.788Y-52.578
X208.788Y-54.864
X208.788Y-58.166
X208.788Y-76.962
X209.042Y-80.01
X209.296Y-84.328
X209.296Y-86.36
X210.566Y-61.214
X210.82Y-58.166
X211.074Y-42.672
X211.074Y-50.546
X211.074Y-66.04
X211.074Y-82.55
X211.836Y-91.745
X211.836Y-92.812
X211.836Y-94.031
X211.836Y-95.25
X211.836Y-96.469
X211.836Y-97.536
X211.836Y-98.654
X211.836Y-99.72
X211.836Y-100.889
X211.836Y-102.006
X212.344Y-45.466
X212.852Y-55.626
X212.852Y-71.12
X212.852Y-91.745
X212.852Y-92.812
X212.852Y-94.031
X212.852Y-95.25
X212.852Y-96.469
X212.852Y-97.536
X212.852Y-98.654
X212.852Y-99.72
X212.852Y-100.889
X212.852Y-102.006
X213.106Y-68.834
X213.106Y-88.646
X213.36Y-73.66
X213.614Y-50.546
X213.614Y-66.04
X213.614Y-82.55
X214.02Y-91.745
X214.02Y-92.812
X214.02Y-94.031
X214.02Y-95.25
X214.02Y-96.469
X214.02Y-97.536
X214.02Y-98.654
X214.02Y-99.72
X214.02Y-100.889
X214.02Y-102.006
X214.376Y-75.692
X214.884Y-84.328
X214.884Y-86.36
X215.138Y-50.546
X215.138Y-54.864
X215.138Y-68.834
X215.138Y-71.12
X215.189Y-91.745
X215.189Y-92.812
X215.189Y-94.031
X215.189Y-95.25
X215.189Y-96.469
X215.189Y-97.536
X215.189Y-98.654
X215.189Y-99.72
X215.189Y-100.889
X215.189Y-102.006
X215.392Y-67.056
X216.408Y-91.745
X216.408Y-92.812
X216.408Y-94.031
X216.408Y-95.25
X216.408Y-96.469
X216.408Y-97.536
X216.408Y-98.654
X216.408Y-99.72
X216.408Y-100.889
X216.408Y-102.006
X216.662Y-51.816
X216.662Y-86.36
X217.424Y-40.64
X217.424Y-43.434
X217.424Y-56.388
X217.424Y-59.69
X217.424Y-63.754
X217.424Y-72.39
X217.424Y-75.692
X217.424Y-80.518
X217.678Y-91.745
X217.678Y-92.812
X217.678Y-94.031
X217.678Y-95.25
X217.678Y-96.469
X217.678Y-97.536
X217.678Y-98.654
X217.678Y-99.72
X217.678Y-100.889
X217.678Y-102.006
X218.694Y-50.546
X218.694Y-66.04
X218.694Y-82.55
X219.456Y-45.974
X220.218Y-63.754
X220.218Y-80.518
X220.472Y-85.852
X220.98Y-40.386
X226.568Y-40.132
X227.584Y-85.09
X229.616Y-40.386
X229.616Y-43.942
X229.616Y-51.816
X229.616Y-55.372
X229.616Y-58.928
X229.616Y-65.532
X229.616Y-68.326
X229.616Y-71.628
X229.616Y-85.09
X229.87Y-74.93
X229.87Y-82.042
T2
X203.821Y-108.966
X204.992Y-105.156
X205.373Y-113.157
X215.024Y-105.029
X215.278Y-112.395
T3
X147.33Y-48.27
X147.33Y-50.81
X147.33Y-53.35
X147.33Y-55.89
X147.33Y-58.43
X147.33Y-60.97
X147.33Y-63.51
X147.33Y-66.05
X147.33Y-68.59
X147.33Y-71.13
X147.33Y-73.67
X147.33Y-76.21
X147.33Y-78.75
X147.33Y-81.29
X154.95Y-48.27
X154.95Y-50.81
X154.95Y-53.35
X154.95Y-55.89
X154.95Y-58.43
X154.95Y-60.97
X154.95Y-63.51
X154.95Y-66.05
X154.95Y-68.59
X154.95Y-71.13
X154.95Y-73.67
X154.95Y-76.21
X154.95Y-78.75
X154.95Y-81.29
X172.73Y-48.27
X172.73Y-50.81
X172.73Y-53.35
X172.73Y-55.89
X172.73Y-58.43
X172.73Y-60.97
X172.73Y-63.51
X172.73Y-66.05
X172.73Y-68.59
X172.73Y-71.13
X172.73Y-73.67
X172.73Y-76.21
X172.73Y-78.75
X172.73Y-81.29
X180.35Y-48.27
X180.35Y-50.81
X180.35Y-53.35
X180.35Y-55.89
X180.35Y-58.43
X180.35Y-60.97
X180.35Y-63.51
X180.35Y-66.05
X180.35Y-68.59
X180.35Y-71.13
X180.35Y-73.67
X180.35Y-76.21
X180.35Y-78.75
X180.35Y-81.29
X190.754Y-66.04
X190.754Y-68.58
X190.754Y-71.12
X190.754Y-73.66
X190.754Y-76.2
X190.754Y-78.74
X190.754Y-81.28
X198.374Y-66.04
X198.374Y-68.58
X198.374Y-71.12
X198.374Y-73.66
X198.374Y-76.2
X198.374Y-78.74
X198.374Y-81.28
T4
X158.108Y-42.164
X160.354Y-86.614
X160.608Y-42.164
X162.854Y-86.614
X163.108Y-42.164
X165.354Y-86.614
X165.608Y-42.164
X167.854Y-86.614
X168.108Y-42.164
X176.61Y-42.118
X179.11Y-42.118
X181.61Y-42.118
X184.11Y-42.118
X186.61Y-42.118
T5
X158.491Y-73.675
X158.491Y-76.215
X158.491Y-78.755
X161.031Y-73.675
X161.031Y-76.215
X161.031Y-78.755
X184.145Y-73.675
X184.145Y-76.215
X184.145Y-78.755
X186.685Y-73.675
X186.685Y-76.215
X186.685Y-78.755
T6
X224.028Y-46.99
X224.028Y-111.506
X224.079Y-62.738
X224.1Y-78.74
T7
X224.028Y-41.99
X224.028Y-51.99
X224.028Y-106.506
X224.028Y-116.506
X224.079Y-57.738
X224.079Y-67.738
X224.1Y-73.74
X224.1Y-83.74
X228.528Y-46.99
X228.528Y-111.506
X228.579Y-62.738
X228.6Y-78.74
T8
X144.018Y-43.688
X144.018Y-92.71
X195.58Y-43.434
T5
G00X221.538Y-97.058
M15
G01X221.538Y-94.458
M16
G05
G00X223.338Y-90.958
M15
G01X225.538Y-90.958
M16
G05
G00X227.838Y-96.858
M15
G01X227.838Y-94.658
M16
G05
T0
M30
