%TF.GenerationSoftware,KiCad,Pcbnew,7.0.7*%
%TF.CreationDate,2023-09-18T17:08:08+02:00*%
%TF.ProjectId,mod_TS520,6d6f645f-5453-4353-9230-2e6b69636164,rev?*%
%TF.SameCoordinates,Original*%
%TF.FileFunction,Soldermask,Bot*%
%TF.FilePolarity,Negative*%
%FSLAX46Y46*%
G04 Gerber Fmt 4.6, Leading zero omitted, Abs format (unit mm)*
G04 Created by KiCad (PCBNEW 7.0.7) date 2023-09-18 17:08:08*
%MOMM*%
%LPD*%
G01*
G04 APERTURE LIST*
G04 Aperture macros list*
%AMRoundRect*
0 Rectangle with rounded corners*
0 $1 Rounding radius*
0 $2 $3 $4 $5 $6 $7 $8 $9 X,Y pos of 4 corners*
0 Add a 4 corners polygon primitive as box body*
4,1,4,$2,$3,$4,$5,$6,$7,$8,$9,$2,$3,0*
0 Add four circle primitives for the rounded corners*
1,1,$1+$1,$2,$3*
1,1,$1+$1,$4,$5*
1,1,$1+$1,$6,$7*
1,1,$1+$1,$8,$9*
0 Add four rect primitives between the rounded corners*
20,1,$1+$1,$2,$3,$4,$5,0*
20,1,$1+$1,$4,$5,$6,$7,0*
20,1,$1+$1,$6,$7,$8,$9,0*
20,1,$1+$1,$8,$9,$2,$3,0*%
%AMFreePoly0*
4,1,19,0.500000,-0.750000,0.000000,-0.750000,0.000000,-0.744911,-0.071157,-0.744911,-0.207708,-0.704816,-0.327430,-0.627875,-0.420627,-0.520320,-0.479746,-0.390866,-0.500000,-0.250000,-0.500000,0.250000,-0.479746,0.390866,-0.420627,0.520320,-0.327430,0.627875,-0.207708,0.704816,-0.071157,0.744911,0.000000,0.744911,0.000000,0.750000,0.500000,0.750000,0.500000,-0.750000,0.500000,-0.750000,
$1*%
%AMFreePoly1*
4,1,19,0.000000,0.744911,0.071157,0.744911,0.207708,0.704816,0.327430,0.627875,0.420627,0.520320,0.479746,0.390866,0.500000,0.250000,0.500000,-0.250000,0.479746,-0.390866,0.420627,-0.520320,0.327430,-0.627875,0.207708,-0.704816,0.071157,-0.744911,0.000000,-0.744911,0.000000,-0.750000,-0.500000,-0.750000,-0.500000,0.750000,0.000000,0.750000,0.000000,0.744911,0.000000,0.744911,
$1*%
G04 Aperture macros list end*
%ADD10RoundRect,0.250000X-0.600000X-0.725000X0.600000X-0.725000X0.600000X0.725000X-0.600000X0.725000X0*%
%ADD11O,1.700000X1.950000*%
%ADD12R,2.000000X4.600000*%
%ADD13O,2.000000X4.200000*%
%ADD14O,4.200000X2.000000*%
%ADD15C,3.820000*%
%ADD16C,2.754000*%
%ADD17R,1.600000X1.600000*%
%ADD18O,1.600000X1.600000*%
%ADD19R,1.700000X1.700000*%
%ADD20O,1.700000X1.700000*%
%ADD21C,3.600000*%
%ADD22C,6.400000*%
%ADD23C,1.524000*%
%ADD24R,7.493000X11.811000*%
%ADD25RoundRect,0.250000X-0.450000X0.350000X-0.450000X-0.350000X0.450000X-0.350000X0.450000X0.350000X0*%
%ADD26RoundRect,0.250000X0.250000X0.475000X-0.250000X0.475000X-0.250000X-0.475000X0.250000X-0.475000X0*%
%ADD27RoundRect,0.250000X0.350000X0.450000X-0.350000X0.450000X-0.350000X-0.450000X0.350000X-0.450000X0*%
%ADD28R,0.700000X1.000000*%
%ADD29RoundRect,0.250000X-0.250000X-0.475000X0.250000X-0.475000X0.250000X0.475000X-0.250000X0.475000X0*%
%ADD30RoundRect,0.250000X0.475000X-0.250000X0.475000X0.250000X-0.475000X0.250000X-0.475000X-0.250000X0*%
%ADD31RoundRect,0.250000X-0.350000X-0.450000X0.350000X-0.450000X0.350000X0.450000X-0.350000X0.450000X0*%
%ADD32RoundRect,0.250000X-0.475000X0.250000X-0.475000X-0.250000X0.475000X-0.250000X0.475000X0.250000X0*%
%ADD33R,1.000000X1.000000*%
%ADD34R,2.300000X1.000000*%
%ADD35R,2.600000X1.000000*%
%ADD36R,1.000000X2.300000*%
%ADD37R,1.000000X2.600000*%
%ADD38RoundRect,0.250000X0.450000X-0.350000X0.450000X0.350000X-0.450000X0.350000X-0.450000X-0.350000X0*%
%ADD39R,1.000000X0.700000*%
%ADD40FreePoly0,270.000000*%
%ADD41FreePoly1,270.000000*%
%ADD42RoundRect,0.150000X0.587500X0.150000X-0.587500X0.150000X-0.587500X-0.150000X0.587500X-0.150000X0*%
%ADD43RoundRect,0.100000X-0.100000X0.637500X-0.100000X-0.637500X0.100000X-0.637500X0.100000X0.637500X0*%
%ADD44RoundRect,0.250000X-0.450000X-0.425000X0.450000X-0.425000X0.450000X0.425000X-0.450000X0.425000X0*%
%ADD45RoundRect,0.250001X-0.462499X-1.074999X0.462499X-1.074999X0.462499X1.074999X-0.462499X1.074999X0*%
%ADD46RoundRect,0.162500X-0.825000X-0.162500X0.825000X-0.162500X0.825000X0.162500X-0.825000X0.162500X0*%
%TA.AperFunction,Profile*%
%ADD47C,0.100000*%
%TD*%
G04 APERTURE END LIST*
D10*
%TO.C,J5*%
X158108000Y-42164000D03*
D11*
X160608000Y-42164000D03*
X163108000Y-42164000D03*
X165608000Y-42164000D03*
X168108000Y-42164000D03*
%TD*%
D12*
%TO.C,J1*%
X221538000Y-95758000D03*
D13*
X227838000Y-95758000D03*
D14*
X224438000Y-90958000D03*
%TD*%
D10*
%TO.C,J6*%
X160354000Y-86614000D03*
D11*
X162854000Y-86614000D03*
X165354000Y-86614000D03*
X167854000Y-86614000D03*
%TD*%
D15*
%TO.C,J4*%
X224100000Y-83740000D03*
X224100000Y-73740000D03*
X228600000Y-78740000D03*
D16*
X224100000Y-78740000D03*
%TD*%
D17*
%TO.C,U2*%
X147330000Y-48270000D03*
D18*
X147330000Y-50810000D03*
X147330000Y-53350000D03*
X147330000Y-55890000D03*
X147330000Y-58430000D03*
X147330000Y-60970000D03*
X147330000Y-63510000D03*
X147330000Y-66050000D03*
X147330000Y-68590000D03*
X147330000Y-71130000D03*
X147330000Y-73670000D03*
X147330000Y-76210000D03*
X147330000Y-78750000D03*
X147330000Y-81290000D03*
X154950000Y-81290000D03*
X154950000Y-78750000D03*
X154950000Y-76210000D03*
X154950000Y-73670000D03*
X154950000Y-71130000D03*
X154950000Y-68590000D03*
X154950000Y-66050000D03*
X154950000Y-63510000D03*
X154950000Y-60970000D03*
X154950000Y-58430000D03*
X154950000Y-55890000D03*
X154950000Y-53350000D03*
X154950000Y-50810000D03*
X154950000Y-48270000D03*
%TD*%
D19*
%TO.C,J12*%
X158491000Y-73675000D03*
D20*
X158491000Y-76215000D03*
X158491000Y-78755000D03*
X161031000Y-78755000D03*
X161031000Y-76215000D03*
X161031000Y-73675000D03*
%TD*%
D19*
%TO.C,J7*%
X184145000Y-73675000D03*
D20*
X184145000Y-76215000D03*
X184145000Y-78755000D03*
X186685000Y-78755000D03*
X186685000Y-76215000D03*
X186685000Y-73675000D03*
%TD*%
D17*
%TO.C,U10*%
X198374000Y-81280000D03*
D18*
X198374000Y-78740000D03*
X198374000Y-76200000D03*
X198374000Y-73660000D03*
X198374000Y-71120000D03*
X198374000Y-68580000D03*
X198374000Y-66040000D03*
X190754000Y-66040000D03*
X190754000Y-68580000D03*
X190754000Y-71120000D03*
X190754000Y-73660000D03*
X190754000Y-76200000D03*
X190754000Y-78740000D03*
X190754000Y-81280000D03*
%TD*%
D10*
%TO.C,J11*%
X176610000Y-42118000D03*
D11*
X179110000Y-42118000D03*
X181610000Y-42118000D03*
X184110000Y-42118000D03*
X186610000Y-42118000D03*
%TD*%
D15*
%TO.C,J3*%
X224078800Y-67738000D03*
X224078800Y-57738000D03*
X228578800Y-62738000D03*
D16*
X224078800Y-62738000D03*
%TD*%
D15*
%TO.C,J2*%
X224028000Y-51990000D03*
X224028000Y-41990000D03*
X228528000Y-46990000D03*
D16*
X224028000Y-46990000D03*
%TD*%
D17*
%TO.C,U8*%
X172730000Y-48270000D03*
D18*
X172730000Y-50810000D03*
X172730000Y-53350000D03*
X172730000Y-55890000D03*
X172730000Y-58430000D03*
X172730000Y-60970000D03*
X172730000Y-63510000D03*
X172730000Y-66050000D03*
X172730000Y-68590000D03*
X172730000Y-71130000D03*
X172730000Y-73670000D03*
X172730000Y-76210000D03*
X172730000Y-78750000D03*
X172730000Y-81290000D03*
X180350000Y-81290000D03*
X180350000Y-78750000D03*
X180350000Y-76210000D03*
X180350000Y-73670000D03*
X180350000Y-71130000D03*
X180350000Y-68590000D03*
X180350000Y-66050000D03*
X180350000Y-63510000D03*
X180350000Y-60970000D03*
X180350000Y-58430000D03*
X180350000Y-55890000D03*
X180350000Y-53350000D03*
X180350000Y-50810000D03*
X180350000Y-48270000D03*
%TD*%
D21*
%TO.C,H10*%
X144018000Y-92710000D03*
D22*
X144018000Y-92710000D03*
%TD*%
D21*
%TO.C,H9*%
X144018000Y-43688000D03*
D22*
X144018000Y-43688000D03*
%TD*%
D23*
%TO.C,TR2*%
X215278500Y-112395000D03*
X215024500Y-105029000D03*
X203821500Y-108966000D03*
X205372500Y-113157000D03*
X204991500Y-105156000D03*
%TD*%
D15*
%TO.C,J9*%
X224028000Y-116506000D03*
X224028000Y-106506000D03*
X228528000Y-111506000D03*
D16*
X224028000Y-111506000D03*
%TD*%
D24*
%TO.C,U1*%
X214630000Y-96886000D03*
%TD*%
D25*
%TO.C,R67*%
X184912000Y-53610000D03*
X184912000Y-55610000D03*
%TD*%
D26*
%TO.C,C26*%
X216088000Y-40640000D03*
X214188000Y-40640000D03*
%TD*%
D27*
%TO.C,R10*%
X152130000Y-59690000D03*
X150130000Y-59690000D03*
%TD*%
D28*
%TO.C,Q5*%
X216276000Y-60960000D03*
X214376000Y-60960000D03*
X215326000Y-58560000D03*
%TD*%
D29*
%TO.C,C30*%
X194376000Y-71120000D03*
X196276000Y-71120000D03*
%TD*%
D30*
%TO.C,C53*%
X149606000Y-72832000D03*
X149606000Y-70932000D03*
%TD*%
D29*
%TO.C,C3*%
X218572000Y-60484000D03*
X220472000Y-60484000D03*
%TD*%
D27*
%TO.C,R28*%
X186166000Y-81534000D03*
X184166000Y-81534000D03*
%TD*%
D31*
%TO.C,R41*%
X210074000Y-43942000D03*
X212074000Y-43942000D03*
%TD*%
D25*
%TO.C,R23*%
X168148000Y-45736000D03*
X168148000Y-47736000D03*
%TD*%
D27*
%TO.C,R59*%
X207502000Y-85410000D03*
X205502000Y-85410000D03*
%TD*%
D26*
%TO.C,C20*%
X207452000Y-46736000D03*
X205552000Y-46736000D03*
%TD*%
D32*
%TO.C,C14*%
X188722000Y-104648000D03*
X188722000Y-106548000D03*
%TD*%
D30*
%TO.C,C23*%
X179974000Y-103446500D03*
X179974000Y-101546500D03*
%TD*%
D28*
%TO.C,Q3*%
X216342000Y-45015000D03*
X214442000Y-45015000D03*
X215392000Y-42615000D03*
%TD*%
D26*
%TO.C,C27*%
X208757000Y-108897500D03*
X206857000Y-108897500D03*
%TD*%
D30*
%TO.C,C6*%
X170688000Y-50480000D03*
X170688000Y-48580000D03*
%TD*%
D29*
%TO.C,C22*%
X179136000Y-113980000D03*
X181036000Y-113980000D03*
%TD*%
D26*
%TO.C,C51*%
X216088000Y-72456000D03*
X214188000Y-72456000D03*
%TD*%
D25*
%TO.C,R11*%
X207873000Y-113247500D03*
X207873000Y-115247500D03*
%TD*%
%TO.C,R46*%
X218694000Y-62786000D03*
X218694000Y-64786000D03*
%TD*%
%TO.C,R26*%
X160528000Y-45736000D03*
X160528000Y-47736000D03*
%TD*%
D26*
%TO.C,C29*%
X195627500Y-115062000D03*
X193727500Y-115062000D03*
%TD*%
D27*
%TO.C,R43*%
X207502000Y-44069000D03*
X205502000Y-44069000D03*
%TD*%
D31*
%TO.C,R71*%
X159020000Y-70358000D03*
X161020000Y-70358000D03*
%TD*%
D32*
%TO.C,C11*%
X192278000Y-104714000D03*
X192278000Y-106614000D03*
%TD*%
D33*
%TO.C,J10*%
X200660000Y-96774000D03*
D34*
X199009000Y-96774000D03*
X194528000Y-96774000D03*
D35*
X189678000Y-96774000D03*
X182178000Y-96774000D03*
D34*
X177328000Y-96774000D03*
D33*
X175678000Y-96774000D03*
D36*
X200660000Y-98424000D03*
X175678000Y-98424000D03*
D37*
X200660000Y-103274000D03*
X175678000Y-103274000D03*
X200660000Y-110774000D03*
X175678000Y-110774000D03*
D36*
X200660000Y-115624000D03*
X175678000Y-115624000D03*
D33*
X200660000Y-117274000D03*
D34*
X199009000Y-117274000D03*
X194528000Y-117274000D03*
D35*
X189678000Y-117274000D03*
X182178000Y-117274000D03*
D34*
X177328000Y-117274000D03*
D33*
X175678000Y-117274000D03*
%TD*%
D27*
%TO.C,R5*%
X184205000Y-101534000D03*
X182205000Y-101534000D03*
%TD*%
D38*
%TO.C,R65*%
X182626000Y-50530000D03*
X182626000Y-48530000D03*
%TD*%
D30*
%TO.C,C61*%
X145034000Y-50414000D03*
X145034000Y-48514000D03*
%TD*%
D27*
%TO.C,R51*%
X207502000Y-69882000D03*
X205502000Y-69882000D03*
%TD*%
%TO.C,R44*%
X207502000Y-53848000D03*
X205502000Y-53848000D03*
%TD*%
D32*
%TO.C,C49*%
X211074000Y-79380000D03*
X211074000Y-81280000D03*
%TD*%
D39*
%TO.C,Q2*%
X207702000Y-64632800D03*
X207702000Y-66532800D03*
X205302000Y-65582800D03*
%TD*%
D32*
%TO.C,C36*%
X175006000Y-61346000D03*
X175006000Y-63246000D03*
%TD*%
%TO.C,C37*%
X178308000Y-66548000D03*
X178308000Y-68448000D03*
%TD*%
D27*
%TO.C,R9*%
X159496000Y-60960000D03*
X157496000Y-60960000D03*
%TD*%
%TO.C,R12*%
X208873000Y-106611500D03*
X206873000Y-106611500D03*
%TD*%
%TO.C,R14*%
X163814000Y-89154000D03*
X161814000Y-89154000D03*
%TD*%
D40*
%TO.C,JP3*%
X180086000Y-93696000D03*
D41*
X180086000Y-94996000D03*
%TD*%
D26*
%TO.C,C47*%
X216088000Y-56388000D03*
X214188000Y-56388000D03*
%TD*%
D25*
%TO.C,R27*%
X157988000Y-45736000D03*
X157988000Y-47736000D03*
%TD*%
D26*
%TO.C,C46*%
X207452000Y-62008000D03*
X205552000Y-62008000D03*
%TD*%
%TO.C,C50*%
X207452000Y-78298000D03*
X205552000Y-78298000D03*
%TD*%
D27*
%TO.C,R58*%
X207502000Y-75758000D03*
X205502000Y-75758000D03*
%TD*%
D25*
%TO.C,R63*%
X175006000Y-53610000D03*
X175006000Y-55610000D03*
%TD*%
D29*
%TO.C,C2*%
X218506000Y-44704000D03*
X220406000Y-44704000D03*
%TD*%
D38*
%TO.C,R53*%
X216154000Y-81330000D03*
X216154000Y-79330000D03*
%TD*%
D40*
%TO.C,JP8*%
X184150000Y-93584000D03*
D41*
X184150000Y-94884000D03*
%TD*%
D25*
%TO.C,R25*%
X163068000Y-45736000D03*
X163068000Y-47736000D03*
%TD*%
D29*
%TO.C,C48*%
X218506000Y-76774000D03*
X220406000Y-76774000D03*
%TD*%
D30*
%TO.C,C65*%
X175006000Y-68260000D03*
X175006000Y-66360000D03*
%TD*%
D26*
%TO.C,C21*%
X184155000Y-103820000D03*
X182255000Y-103820000D03*
%TD*%
D39*
%TO.C,Q1*%
X207467200Y-80416400D03*
X207467200Y-82316400D03*
X205067200Y-81366400D03*
%TD*%
D28*
%TO.C,Q7*%
X216342000Y-77146000D03*
X214442000Y-77146000D03*
X215392000Y-74746000D03*
%TD*%
D38*
%TO.C,R2*%
X216154000Y-49260000D03*
X216154000Y-47260000D03*
%TD*%
D27*
%TO.C,R30*%
X162798000Y-84582000D03*
X160798000Y-84582000D03*
%TD*%
%TO.C,R8*%
X152130000Y-57404000D03*
X150130000Y-57404000D03*
%TD*%
D25*
%TO.C,R62*%
X178054000Y-48784000D03*
X178054000Y-50784000D03*
%TD*%
D27*
%TO.C,R40*%
X212074000Y-41402000D03*
X210074000Y-41402000D03*
%TD*%
D30*
%TO.C,C54*%
X149606000Y-68260000D03*
X149606000Y-66360000D03*
%TD*%
D26*
%TO.C,C38*%
X186116000Y-111694000D03*
X184216000Y-111694000D03*
%TD*%
D31*
%TO.C,R48*%
X209820000Y-59468000D03*
X211820000Y-59468000D03*
%TD*%
D32*
%TO.C,C52*%
X182626000Y-53594000D03*
X182626000Y-55494000D03*
%TD*%
%TO.C,C15*%
X211074000Y-62836000D03*
X211074000Y-64736000D03*
%TD*%
D38*
%TO.C,R64*%
X184912000Y-50530000D03*
X184912000Y-48530000D03*
%TD*%
D25*
%TO.C,R42*%
X213614000Y-47244000D03*
X213614000Y-49244000D03*
%TD*%
D26*
%TO.C,C16*%
X195627500Y-112776000D03*
X193727500Y-112776000D03*
%TD*%
D25*
%TO.C,R61*%
X187198000Y-48530000D03*
X187198000Y-50530000D03*
%TD*%
D30*
%TO.C,C13*%
X188722000Y-110424000D03*
X188722000Y-108524000D03*
%TD*%
D31*
%TO.C,R56*%
X209820000Y-75758000D03*
X211820000Y-75758000D03*
%TD*%
D32*
%TO.C,C57*%
X149606000Y-61534000D03*
X149606000Y-63434000D03*
%TD*%
D27*
%TO.C,R47*%
X211836000Y-56928000D03*
X209836000Y-56928000D03*
%TD*%
D25*
%TO.C,R49*%
X213614000Y-62770000D03*
X213614000Y-64770000D03*
%TD*%
D42*
%TO.C,D4*%
X180848000Y-44450000D03*
X180848000Y-46350000D03*
X178973000Y-45400000D03*
%TD*%
D43*
%TO.C,U3*%
X194829000Y-104833500D03*
X195479000Y-104833500D03*
X196129000Y-104833500D03*
X196779000Y-104833500D03*
X197429000Y-104833500D03*
X198079000Y-104833500D03*
X198729000Y-104833500D03*
X199379000Y-104833500D03*
X199379000Y-110558500D03*
X198729000Y-110558500D03*
X198079000Y-110558500D03*
X197429000Y-110558500D03*
X196779000Y-110558500D03*
X196129000Y-110558500D03*
X195479000Y-110558500D03*
X194829000Y-110558500D03*
%TD*%
D25*
%TO.C,R60*%
X203200000Y-81362000D03*
X203200000Y-83362000D03*
%TD*%
D31*
%TO.C,R6*%
X179086000Y-111694000D03*
X181086000Y-111694000D03*
%TD*%
D25*
%TO.C,R70*%
X157226000Y-66326000D03*
X157226000Y-68326000D03*
%TD*%
D30*
%TO.C,C24*%
X177617000Y-103380500D03*
X177617000Y-101480500D03*
%TD*%
D44*
%TO.C,C10*%
X206857000Y-111183500D03*
X209557000Y-111183500D03*
%TD*%
D27*
%TO.C,R7*%
X159512000Y-58674000D03*
X157512000Y-58674000D03*
%TD*%
D25*
%TO.C,R57*%
X213614000Y-79330000D03*
X213614000Y-81330000D03*
%TD*%
D30*
%TO.C,C12*%
X192278000Y-110424000D03*
X192278000Y-108524000D03*
%TD*%
D39*
%TO.C,Q4*%
X207702000Y-48834000D03*
X207702000Y-50734000D03*
X205302000Y-49784000D03*
%TD*%
D25*
%TO.C,R45*%
X203200000Y-50054000D03*
X203200000Y-52054000D03*
%TD*%
D38*
%TO.C,R66*%
X170434000Y-55610000D03*
X170434000Y-53610000D03*
%TD*%
D32*
%TO.C,C58*%
X152908000Y-66360000D03*
X152908000Y-68260000D03*
%TD*%
D45*
%TO.C,L19*%
X158024500Y-110490000D03*
X160999500Y-110490000D03*
%TD*%
D27*
%TO.C,R50*%
X207502000Y-59468000D03*
X205502000Y-59468000D03*
%TD*%
D25*
%TO.C,R68*%
X178054000Y-53626000D03*
X178054000Y-55626000D03*
%TD*%
D27*
%TO.C,R55*%
X211836000Y-73218000D03*
X209836000Y-73218000D03*
%TD*%
D25*
%TO.C,R52*%
X203200000Y-65564000D03*
X203200000Y-67564000D03*
%TD*%
D30*
%TO.C,C64*%
X175006000Y-73152000D03*
X175006000Y-71252000D03*
%TD*%
D31*
%TO.C,R4*%
X184182000Y-113980000D03*
X186182000Y-113980000D03*
%TD*%
D32*
%TO.C,C33*%
X157988000Y-106050000D03*
X157988000Y-107950000D03*
%TD*%
D25*
%TO.C,R54*%
X218694000Y-79330000D03*
X218694000Y-81330000D03*
%TD*%
%TO.C,R39*%
X218694000Y-47149000D03*
X218694000Y-49149000D03*
%TD*%
D38*
%TO.C,R20*%
X182626000Y-70834000D03*
X182626000Y-68834000D03*
%TD*%
D32*
%TO.C,C8*%
X211074000Y-47310000D03*
X211074000Y-49210000D03*
%TD*%
D38*
%TO.C,R3*%
X216154000Y-64770000D03*
X216154000Y-62770000D03*
%TD*%
D46*
%TO.C,U4*%
X179326500Y-109601000D03*
X179326500Y-108331000D03*
X179326500Y-107061000D03*
X179326500Y-105791000D03*
X184401500Y-105791000D03*
X184401500Y-107061000D03*
X184401500Y-108331000D03*
X184401500Y-109601000D03*
%TD*%
D25*
%TO.C,R24*%
X165608000Y-45736000D03*
X165608000Y-47736000D03*
%TD*%
D47*
X139700000Y-39370000D02*
X230886000Y-39370000D01*
X230886000Y-39370000D02*
X230886000Y-119380000D01*
X139700000Y-119380000D02*
X139700000Y-39370000D01*
X230886000Y-119380000D02*
X139700000Y-119380000D01*
M02*
