%TF.GenerationSoftware,KiCad,Pcbnew,7.0.7*%
%TF.CreationDate,2023-09-18T17:08:08+02:00*%
%TF.ProjectId,mod_TS520,6d6f645f-5453-4353-9230-2e6b69636164,rev?*%
%TF.SameCoordinates,Original*%
%TF.FileFunction,Soldermask,Top*%
%TF.FilePolarity,Negative*%
%FSLAX46Y46*%
G04 Gerber Fmt 4.6, Leading zero omitted, Abs format (unit mm)*
G04 Created by KiCad (PCBNEW 7.0.7) date 2023-09-18 17:08:08*
%MOMM*%
%LPD*%
G01*
G04 APERTURE LIST*
G04 Aperture macros list*
%AMRoundRect*
0 Rectangle with rounded corners*
0 $1 Rounding radius*
0 $2 $3 $4 $5 $6 $7 $8 $9 X,Y pos of 4 corners*
0 Add a 4 corners polygon primitive as box body*
4,1,4,$2,$3,$4,$5,$6,$7,$8,$9,$2,$3,0*
0 Add four circle primitives for the rounded corners*
1,1,$1+$1,$2,$3*
1,1,$1+$1,$4,$5*
1,1,$1+$1,$6,$7*
1,1,$1+$1,$8,$9*
0 Add four rect primitives between the rounded corners*
20,1,$1+$1,$2,$3,$4,$5,0*
20,1,$1+$1,$4,$5,$6,$7,0*
20,1,$1+$1,$6,$7,$8,$9,0*
20,1,$1+$1,$8,$9,$2,$3,0*%
%AMFreePoly0*
4,1,19,0.500000,-0.750000,0.000000,-0.750000,0.000000,-0.744911,-0.071157,-0.744911,-0.207708,-0.704816,-0.327430,-0.627875,-0.420627,-0.520320,-0.479746,-0.390866,-0.500000,-0.250000,-0.500000,0.250000,-0.479746,0.390866,-0.420627,0.520320,-0.327430,0.627875,-0.207708,0.704816,-0.071157,0.744911,0.000000,0.744911,0.000000,0.750000,0.500000,0.750000,0.500000,-0.750000,0.500000,-0.750000,
$1*%
%AMFreePoly1*
4,1,19,0.000000,0.744911,0.071157,0.744911,0.207708,0.704816,0.327430,0.627875,0.420627,0.520320,0.479746,0.390866,0.500000,0.250000,0.500000,-0.250000,0.479746,-0.390866,0.420627,-0.520320,0.327430,-0.627875,0.207708,-0.704816,0.071157,-0.744911,0.000000,-0.744911,0.000000,-0.750000,-0.500000,-0.750000,-0.500000,0.750000,0.000000,0.750000,0.000000,0.744911,0.000000,0.744911,
$1*%
G04 Aperture macros list end*
%ADD10RoundRect,0.250000X-0.600000X-0.725000X0.600000X-0.725000X0.600000X0.725000X-0.600000X0.725000X0*%
%ADD11O,1.700000X1.950000*%
%ADD12R,2.300000X1.000000*%
%ADD13R,2.600000X1.000000*%
%ADD14R,1.000000X1.000000*%
%ADD15R,1.000000X2.300000*%
%ADD16R,1.000000X2.600000*%
%ADD17RoundRect,0.250000X-0.450000X0.350000X-0.450000X-0.350000X0.450000X-0.350000X0.450000X0.350000X0*%
%ADD18RoundRect,0.250000X-0.450000X-0.425000X0.450000X-0.425000X0.450000X0.425000X-0.450000X0.425000X0*%
%ADD19C,1.500000*%
%ADD20R,2.000000X4.600000*%
%ADD21O,2.000000X4.200000*%
%ADD22O,4.200000X2.000000*%
%ADD23R,2.000000X4.500000*%
%ADD24RoundRect,0.150000X-0.150000X0.587500X-0.150000X-0.587500X0.150000X-0.587500X0.150000X0.587500X0*%
%ADD25C,3.820000*%
%ADD26C,2.754000*%
%ADD27RoundRect,0.250001X-0.462499X-1.074999X0.462499X-1.074999X0.462499X1.074999X-0.462499X1.074999X0*%
%ADD28FreePoly0,270.000000*%
%ADD29FreePoly1,270.000000*%
%ADD30R,1.600000X1.600000*%
%ADD31O,1.600000X1.600000*%
%ADD32R,1.700000X1.700000*%
%ADD33O,1.700000X1.700000*%
%ADD34FreePoly0,90.000000*%
%ADD35FreePoly1,90.000000*%
%ADD36RoundRect,0.250000X-0.250000X-0.475000X0.250000X-0.475000X0.250000X0.475000X-0.250000X0.475000X0*%
%ADD37RoundRect,0.250001X0.799999X-1.999999X0.799999X1.999999X-0.799999X1.999999X-0.799999X-1.999999X0*%
%ADD38RoundRect,0.250000X0.450000X-0.350000X0.450000X0.350000X-0.450000X0.350000X-0.450000X-0.350000X0*%
%ADD39RoundRect,0.250000X0.475000X-0.250000X0.475000X0.250000X-0.475000X0.250000X-0.475000X-0.250000X0*%
%ADD40RoundRect,0.250000X-0.475000X0.250000X-0.475000X-0.250000X0.475000X-0.250000X0.475000X0.250000X0*%
%ADD41C,3.600000*%
%ADD42C,6.400000*%
%ADD43RoundRect,0.150000X0.587500X0.150000X-0.587500X0.150000X-0.587500X-0.150000X0.587500X-0.150000X0*%
%ADD44C,1.524000*%
%ADD45RoundRect,0.250001X0.462499X1.074999X-0.462499X1.074999X-0.462499X-1.074999X0.462499X-1.074999X0*%
%ADD46RoundRect,0.250000X0.425000X-0.450000X0.425000X0.450000X-0.425000X0.450000X-0.425000X-0.450000X0*%
%ADD47R,1.400000X0.300000*%
%ADD48RoundRect,0.250000X0.350000X0.450000X-0.350000X0.450000X-0.350000X-0.450000X0.350000X-0.450000X0*%
%ADD49RoundRect,0.250000X0.250000X0.475000X-0.250000X0.475000X-0.250000X-0.475000X0.250000X-0.475000X0*%
%ADD50R,2.200000X1.200000*%
%ADD51R,7.493000X11.811000*%
%ADD52RoundRect,0.150000X-0.650000X-0.150000X0.650000X-0.150000X0.650000X0.150000X-0.650000X0.150000X0*%
%TA.AperFunction,Profile*%
%ADD53C,0.100000*%
%TD*%
G04 APERTURE END LIST*
D10*
%TO.C,J5*%
X158108000Y-42164000D03*
D11*
X160608000Y-42164000D03*
X163108000Y-42164000D03*
X165608000Y-42164000D03*
X168108000Y-42164000D03*
%TD*%
D12*
%TO.C,J8*%
X149411500Y-114554000D03*
D13*
X154261500Y-114554000D03*
X161761500Y-114554000D03*
D12*
X166611500Y-114554000D03*
D14*
X168261500Y-114554000D03*
X147761500Y-114553000D03*
D15*
X168261500Y-112904000D03*
X147761500Y-112903000D03*
D16*
X147761500Y-106680000D03*
X168261500Y-106680000D03*
D15*
X147761500Y-101255000D03*
X168261500Y-101255000D03*
D14*
X147761500Y-99605000D03*
D12*
X149411500Y-99605000D03*
D13*
X154261500Y-99605000D03*
X161761500Y-99605000D03*
D12*
X166611500Y-99605000D03*
D14*
X168261500Y-99605000D03*
%TD*%
D17*
%TO.C,R22*%
X157988000Y-45736000D03*
X157988000Y-47736000D03*
%TD*%
D18*
%TO.C,C32*%
X184070000Y-111694000D03*
X186770000Y-111694000D03*
%TD*%
D19*
%TO.C,TP6*%
X171196000Y-105410000D03*
%TD*%
D20*
%TO.C,J1*%
X221538000Y-95758000D03*
D21*
X227838000Y-95758000D03*
D22*
X224438000Y-90958000D03*
%TD*%
D23*
%TO.C,Y3*%
X143256000Y-77216000D03*
X143256000Y-68716000D03*
%TD*%
D18*
%TO.C,C4*%
X193722000Y-112710000D03*
X196422000Y-112710000D03*
%TD*%
D24*
%TO.C,D2*%
X165783500Y-104206000D03*
X163883500Y-104206000D03*
X164833500Y-106081000D03*
%TD*%
D10*
%TO.C,J6*%
X160354000Y-86614000D03*
D11*
X162854000Y-86614000D03*
X165354000Y-86614000D03*
X167854000Y-86614000D03*
%TD*%
D25*
%TO.C,J4*%
X224100000Y-83740000D03*
X224100000Y-73740000D03*
X228600000Y-78740000D03*
D26*
X224100000Y-78740000D03*
%TD*%
D17*
%TO.C,R16*%
X165608000Y-45736000D03*
X165608000Y-47736000D03*
%TD*%
D27*
%TO.C,L17*%
X183322900Y-82346800D03*
X186297900Y-82346800D03*
%TD*%
D28*
%TO.C,JP4*%
X207518000Y-87488000D03*
D29*
X207518000Y-88788000D03*
%TD*%
D30*
%TO.C,U2*%
X147330000Y-48270000D03*
D31*
X147330000Y-50810000D03*
X147330000Y-53350000D03*
X147330000Y-55890000D03*
X147330000Y-58430000D03*
X147330000Y-60970000D03*
X147330000Y-63510000D03*
X147330000Y-66050000D03*
X147330000Y-68590000D03*
X147330000Y-71130000D03*
X147330000Y-73670000D03*
X147330000Y-76210000D03*
X147330000Y-78750000D03*
X147330000Y-81290000D03*
X154950000Y-81290000D03*
X154950000Y-78750000D03*
X154950000Y-76210000D03*
X154950000Y-73670000D03*
X154950000Y-71130000D03*
X154950000Y-68590000D03*
X154950000Y-66050000D03*
X154950000Y-63510000D03*
X154950000Y-60970000D03*
X154950000Y-58430000D03*
X154950000Y-55890000D03*
X154950000Y-53350000D03*
X154950000Y-50810000D03*
X154950000Y-48270000D03*
%TD*%
D23*
%TO.C,Y2*%
X168402000Y-77216000D03*
X168402000Y-68716000D03*
%TD*%
D28*
%TO.C,JP5*%
X157480000Y-95616000D03*
D29*
X157480000Y-96916000D03*
%TD*%
D32*
%TO.C,J12*%
X158491000Y-73675000D03*
D33*
X158491000Y-76215000D03*
X158491000Y-78755000D03*
X161031000Y-78755000D03*
X161031000Y-76215000D03*
X161031000Y-73675000D03*
%TD*%
D32*
%TO.C,J7*%
X184145000Y-73675000D03*
D33*
X184145000Y-76215000D03*
X184145000Y-78755000D03*
X186685000Y-78755000D03*
X186685000Y-76215000D03*
X186685000Y-73675000D03*
%TD*%
D34*
%TO.C,JP6*%
X153670000Y-88788000D03*
D35*
X153670000Y-87488000D03*
%TD*%
D34*
%TO.C,JP2*%
X154432000Y-117744000D03*
D35*
X154432000Y-116444000D03*
%TD*%
D23*
%TO.C,Y1*%
X143981500Y-109914000D03*
X143981500Y-101414000D03*
%TD*%
D34*
%TO.C,JP7*%
X181102000Y-88646000D03*
D35*
X181102000Y-87346000D03*
%TD*%
D36*
%TO.C,C5*%
X204216000Y-92456000D03*
X206116000Y-92456000D03*
%TD*%
D30*
%TO.C,U10*%
X198374000Y-81280000D03*
D31*
X198374000Y-78740000D03*
X198374000Y-76200000D03*
X198374000Y-73660000D03*
X198374000Y-71120000D03*
X198374000Y-68580000D03*
X198374000Y-66040000D03*
X190754000Y-66040000D03*
X190754000Y-68580000D03*
X190754000Y-71120000D03*
X190754000Y-73660000D03*
X190754000Y-76200000D03*
X190754000Y-78740000D03*
X190754000Y-81280000D03*
%TD*%
D10*
%TO.C,J11*%
X176610000Y-42118000D03*
D11*
X179110000Y-42118000D03*
X181610000Y-42118000D03*
X184110000Y-42118000D03*
X186610000Y-42118000D03*
%TD*%
D28*
%TO.C,JP1*%
X215292000Y-87488000D03*
D29*
X215292000Y-88788000D03*
%TD*%
D25*
%TO.C,J3*%
X224078800Y-67738000D03*
X224078800Y-57738000D03*
X228578800Y-62738000D03*
D26*
X224078800Y-62738000D03*
%TD*%
D37*
%TO.C,C19*%
X189230000Y-94278000D03*
X189230000Y-87078000D03*
%TD*%
D25*
%TO.C,J2*%
X224028000Y-51990000D03*
X224028000Y-41990000D03*
X228528000Y-46990000D03*
D26*
X224028000Y-46990000D03*
%TD*%
D38*
%TO.C,R29*%
X155411500Y-103362000D03*
X155411500Y-101362000D03*
%TD*%
D39*
%TO.C,C41*%
X218948000Y-113218000D03*
X218948000Y-111318000D03*
%TD*%
D30*
%TO.C,U8*%
X172730000Y-48270000D03*
D31*
X172730000Y-50810000D03*
X172730000Y-53350000D03*
X172730000Y-55890000D03*
X172730000Y-58430000D03*
X172730000Y-60970000D03*
X172730000Y-63510000D03*
X172730000Y-66050000D03*
X172730000Y-68590000D03*
X172730000Y-71130000D03*
X172730000Y-73670000D03*
X172730000Y-76210000D03*
X172730000Y-78750000D03*
X172730000Y-81290000D03*
X180350000Y-81290000D03*
X180350000Y-78750000D03*
X180350000Y-76210000D03*
X180350000Y-73670000D03*
X180350000Y-71130000D03*
X180350000Y-68590000D03*
X180350000Y-66050000D03*
X180350000Y-63510000D03*
X180350000Y-60970000D03*
X180350000Y-58430000D03*
X180350000Y-55890000D03*
X180350000Y-53350000D03*
X180350000Y-50810000D03*
X180350000Y-48270000D03*
%TD*%
D40*
%TO.C,C56*%
X145034000Y-61534000D03*
X145034000Y-63434000D03*
%TD*%
D41*
%TO.C,H10*%
X144018000Y-92710000D03*
D42*
X144018000Y-92710000D03*
%TD*%
D36*
%TO.C,C31*%
X207076000Y-62230000D03*
X208976000Y-62230000D03*
%TD*%
D41*
%TO.C,H9*%
X144018000Y-43688000D03*
D42*
X144018000Y-43688000D03*
%TD*%
D37*
%TO.C,C1*%
X198374000Y-94278000D03*
X198374000Y-87078000D03*
%TD*%
D43*
%TO.C,D1*%
X165529500Y-110170000D03*
X165529500Y-108270000D03*
X163654500Y-109220000D03*
%TD*%
D44*
%TO.C,TR2*%
X215278500Y-112395000D03*
X215024500Y-105029000D03*
X203821500Y-108966000D03*
X205372500Y-113157000D03*
X204991500Y-105156000D03*
%TD*%
D45*
%TO.C,L1*%
X160491500Y-82296000D03*
X157516500Y-82296000D03*
%TD*%
D25*
%TO.C,J9*%
X224028000Y-116506000D03*
X224028000Y-106506000D03*
X228528000Y-111506000D03*
D26*
X224028000Y-111506000D03*
%TD*%
D46*
%TO.C,C7*%
X167894000Y-63246000D03*
X167894000Y-60546000D03*
%TD*%
D17*
%TO.C,R21*%
X160528000Y-45720000D03*
X160528000Y-47720000D03*
%TD*%
D36*
%TO.C,C18*%
X204028000Y-97282000D03*
X205928000Y-97282000D03*
%TD*%
D47*
%TO.C,U7*%
X150671500Y-105426000D03*
X150671500Y-105926000D03*
X150671500Y-106426000D03*
X150671500Y-106926000D03*
X150671500Y-107426000D03*
X155071500Y-107426000D03*
X155071500Y-106926000D03*
X155071500Y-106426000D03*
X155071500Y-105926000D03*
X155071500Y-105426000D03*
%TD*%
D48*
%TO.C,R19*%
X153109500Y-109474000D03*
X151109500Y-109474000D03*
%TD*%
D40*
%TO.C,C34*%
X157988000Y-106050000D03*
X157988000Y-107950000D03*
%TD*%
D48*
%TO.C,R1*%
X220964000Y-108966000D03*
X218964000Y-108966000D03*
%TD*%
D40*
%TO.C,C35*%
X170434000Y-61346000D03*
X170434000Y-63246000D03*
%TD*%
D17*
%TO.C,R17*%
X163068000Y-45720000D03*
X163068000Y-47720000D03*
%TD*%
D19*
%TO.C,TP7*%
X171196000Y-102362000D03*
%TD*%
D49*
%TO.C,C44*%
X156464000Y-85090000D03*
X154564000Y-85090000D03*
%TD*%
D50*
%TO.C,U1*%
X208715500Y-92637500D03*
D51*
X214630000Y-96886000D03*
D50*
X208715500Y-97197500D03*
%TD*%
D46*
%TO.C,C9*%
X142748000Y-63754000D03*
X142748000Y-61054000D03*
%TD*%
D41*
%TO.C,H12*%
X195580000Y-43434000D03*
D42*
X195580000Y-43434000D03*
%TD*%
D49*
%TO.C,C25*%
X158938000Y-64262000D03*
X157038000Y-64262000D03*
%TD*%
D17*
%TO.C,R15*%
X168148000Y-45736000D03*
X168148000Y-47736000D03*
%TD*%
D52*
%TO.C,U11*%
X202438000Y-64262000D03*
X202438000Y-65532000D03*
X202438000Y-66802000D03*
X202438000Y-68072000D03*
X202438000Y-69342000D03*
X202438000Y-70612000D03*
X202438000Y-71882000D03*
X202438000Y-73152000D03*
X208938000Y-73152000D03*
X208938000Y-71882000D03*
X208938000Y-70612000D03*
X208938000Y-69342000D03*
X208938000Y-68072000D03*
X208938000Y-66802000D03*
X208938000Y-65532000D03*
X208938000Y-64262000D03*
%TD*%
D48*
%TO.C,R18*%
X153109500Y-111506000D03*
X151109500Y-111506000D03*
%TD*%
D38*
%TO.C,R13*%
X157734000Y-103362000D03*
X157734000Y-101362000D03*
%TD*%
D53*
X139700000Y-39370000D02*
X230886000Y-39370000D01*
X230886000Y-39370000D02*
X230886000Y-119380000D01*
X139700000Y-119380000D02*
X139700000Y-39370000D01*
X230886000Y-119380000D02*
X139700000Y-119380000D01*
M02*
